<svg width="604" height="90" viewBox="0 0 604 90" fill="none" xmlns="http://www.w3.org/2000/svg">
<line y1="9.5" x2="217.5" y2="9.5" stroke="#939393"/>
<path d="M251.684 7.216C251.684 7.852 251.534 8.452 251.234 9.016C250.934 9.58 250.454 10.042 249.794 10.402C249.134 10.75 248.288 10.924 247.256 10.924H244.988V16H242.936V3.49H247.256C248.216 3.49 249.026 3.658 249.686 3.994C250.358 4.318 250.856 4.762 251.18 5.326C251.516 5.89 251.684 6.52 251.684 7.216ZM247.256 9.25C248.036 9.25 248.618 9.076 249.002 8.728C249.386 8.368 249.578 7.864 249.578 7.216C249.578 5.848 248.804 5.164 247.256 5.164H244.988V9.25H247.256ZM260.247 16.126C259.083 16.126 258.009 15.856 257.025 15.316C256.053 14.764 255.279 14.002 254.703 13.03C254.139 12.046 253.857 10.942 253.857 9.718C253.857 8.494 254.139 7.396 254.703 6.424C255.279 5.452 256.053 4.696 257.025 4.156C258.009 3.604 259.083 3.328 260.247 3.328C261.423 3.328 262.497 3.604 263.469 4.156C264.453 4.696 265.227 5.452 265.791 6.424C266.355 7.396 266.637 8.494 266.637 9.718C266.637 10.942 266.355 12.046 265.791 13.03C265.227 14.002 264.453 14.764 263.469 15.316C262.497 15.856 261.423 16.126 260.247 16.126ZM260.247 14.344C261.075 14.344 261.813 14.158 262.461 13.786C263.109 13.402 263.613 12.862 263.973 12.166C264.345 11.458 264.531 10.642 264.531 9.718C264.531 8.794 264.345 7.984 263.973 7.288C263.613 6.592 263.109 6.058 262.461 5.686C261.813 5.314 261.075 5.128 260.247 5.128C259.419 5.128 258.681 5.314 258.033 5.686C257.385 6.058 256.875 6.592 256.503 7.288C256.143 7.984 255.963 8.794 255.963 9.718C255.963 10.642 256.143 11.458 256.503 12.166C256.875 12.862 257.385 13.402 258.033 13.786C258.681 14.158 259.419 14.344 260.247 14.344ZM285.846 3.49L282.138 16H279.816L277.188 6.532L274.398 16L272.094 16.018L268.548 3.49H270.726L273.318 13.678L276.126 3.49H278.43L281.04 13.624L283.65 3.49H285.846ZM290.49 5.146V8.818H294.81V10.492H290.49V14.326H295.35V16H288.438V3.472H295.35V5.146H290.49ZM305.276 16L302.396 10.996H300.83V16H298.778V3.49H303.098C304.058 3.49 304.868 3.658 305.528 3.994C306.2 4.33 306.698 4.78 307.022 5.344C307.358 5.908 307.526 6.538 307.526 7.234C307.526 8.05 307.286 8.794 306.806 9.466C306.338 10.126 305.612 10.576 304.628 10.816L307.724 16H305.276ZM300.83 9.358H303.098C303.866 9.358 304.442 9.166 304.826 8.782C305.222 8.398 305.42 7.882 305.42 7.234C305.42 6.586 305.228 6.082 304.844 5.722C304.46 5.35 303.878 5.164 303.098 5.164H300.83V9.358ZM313.103 5.146V8.818H317.423V10.492H313.103V14.326H317.963V16H311.051V3.472H317.963V5.146H313.103ZM325.476 3.49C326.808 3.49 327.972 3.748 328.968 4.264C329.976 4.768 330.75 5.5 331.29 6.46C331.842 7.408 332.118 8.518 332.118 9.79C332.118 11.062 331.842 12.166 331.29 13.102C330.75 14.038 329.976 14.758 328.968 15.262C327.972 15.754 326.808 16 325.476 16H321.39V3.49H325.476ZM325.476 14.326C326.94 14.326 328.062 13.93 328.842 13.138C329.622 12.346 330.012 11.23 330.012 9.79C330.012 8.338 329.622 7.204 328.842 6.388C328.062 5.572 326.94 5.164 325.476 5.164H323.442V14.326H325.476ZM347.324 9.574C347.996 9.694 348.566 10.048 349.034 10.636C349.502 11.224 349.736 11.89 349.736 12.634C349.736 13.27 349.568 13.846 349.232 14.362C348.908 14.866 348.434 15.268 347.81 15.568C347.186 15.856 346.46 16 345.632 16H340.628V3.49H345.398C346.25 3.49 346.982 3.634 347.594 3.922C348.206 4.21 348.668 4.6 348.98 5.092C349.292 5.572 349.448 6.112 349.448 6.712C349.448 7.432 349.256 8.032 348.872 8.512C348.488 8.992 347.972 9.346 347.324 9.574ZM342.68 8.746H345.218C345.89 8.746 346.412 8.596 346.784 8.296C347.168 7.984 347.36 7.54 347.36 6.964C347.36 6.4 347.168 5.962 346.784 5.65C346.412 5.326 345.89 5.164 345.218 5.164H342.68V8.746ZM345.452 14.326C346.148 14.326 346.694 14.158 347.09 13.822C347.486 13.486 347.684 13.018 347.684 12.418C347.684 11.806 347.474 11.32 347.054 10.96C346.634 10.6 346.076 10.42 345.38 10.42H342.68V14.326H345.452ZM362.136 3.49L357.996 11.464V16H355.944V11.464L351.786 3.49H354.072L356.97 9.628L359.868 3.49H362.136Z" fill="#737373"/>
<line x1="386.5" y1="9.5" x2="604" y2="9.5" stroke="#939393"/>
<path d="M18.5219 62.5137C18.5219 62.8905 18.5091 63.2598 18.4858 63.6142C18.4626 63.9687 18.3827 64.4346 18.2513 65.0146C18.1172 65.592 17.9419 66.125 17.7253 66.6108C17.5088 67.0941 17.1866 67.6047 16.7638 68.135C16.341 68.6679 15.8384 69.1115 15.2558 69.466C14.6757 69.8204 13.9359 70.1154 13.0414 70.3533C12.1443 70.5887 11.1415 70.7077 10.0279 70.7077H1.18582C0.533617 70.7077 0.00257841 70.1897 0.00257841 69.5528V66.2984H0.00773424C1.374 66.2984 3.09344 66.2984 4.89535 66.296H10.2676C10.9559 66.296 11.474 65.9639 11.7318 65.364C11.987 64.7741 11.8659 64.1916 11.389 63.7233C9.70048 62.0676 7.99394 60.407 6.40339 58.8554C6.03734 58.4985 5.58106 58.3523 5.08354 58.4316C4.47774 58.5307 4.05755 58.8753 3.86421 59.4304C3.66571 60.0079 3.79719 60.5433 4.24315 60.982C4.89535 61.6215 5.5527 62.2609 6.23841 62.9252L6.61221 63.292H0.00257841L0 55.1525C0.00257786 54.5155 0.531039 54 1.18066 54H10.0227C12.4201 54 14.436 54.7634 16.0678 56.2877C17.7047 57.8144 18.5219 59.889 18.5219 62.5137Z" fill="#3C67B1"/>
<path d="M18.5219 79.806C18.5219 80.1827 18.5091 80.5521 18.4858 80.9065C18.4626 81.261 18.3827 81.7268 18.2513 82.3069C18.1172 82.8843 17.9419 83.4172 17.7253 83.9031C17.5088 84.3864 17.1866 84.897 16.7638 85.4274C16.341 85.9602 15.8384 86.4038 15.2558 86.7583C14.6757 87.1127 13.9359 87.4077 13.0414 87.6456C12.1443 87.881 11.1415 88 10.0279 88H1.18582C0.533617 88 0.00257841 87.482 0.00257841 86.8451L0 72.4472C0.00257786 71.8103 0.531039 71.2948 1.18066 71.2948H10.0227C12.4201 71.2948 14.436 72.0582 16.0678 73.5825C16.769 74.2392 17.3233 74.9952 17.7228 75.8528C16.4777 75.8528 14.9361 75.8528 13.307 75.8552H7.42939C6.7411 75.8552 6.22295 76.1849 5.96259 76.7872C5.70995 77.3771 5.83112 77.962 6.30544 78.428C7.98105 80.0713 9.69016 81.7392 11.2884 83.2957C11.59 83.5907 11.951 83.7419 12.3454 83.7419C12.433 83.7419 12.5181 83.7345 12.6083 83.7197C13.2141 83.6205 13.6343 83.2759 13.8276 82.7183C14.0261 82.1433 13.8946 81.608 13.4487 81.1693C12.7965 80.5273 12.1391 79.8903 11.4508 79.2236L11.0796 78.8592H18.4833C18.5091 79.1641 18.5219 79.4814 18.5219 79.806Z" fill="#3C67B1"/>
<path d="M21.5876 54H27.9343C31.5278 54 33.3091 55.7622 33.3091 58.1441C33.3091 60.0873 32.0305 61.1803 30.4116 61.5446V61.7008C32.1774 61.7875 33.9561 63.2077 33.9561 65.6242C33.9561 68.1127 32.0949 69.979 28.2977 69.979H21.5876V54ZM27.5605 60.7936C29.1226 60.7936 30.3059 59.9187 30.3059 58.5159C30.3059 57.284 29.3907 56.3868 27.6275 56.3868H24.5908V60.7961H27.5605V60.7936ZM27.8208 67.56C29.9991 67.56 30.904 66.6703 30.904 65.3987C30.904 63.9711 29.7543 62.8781 27.9008 62.8781H24.5908V67.56H27.8208Z" fill="#F26727"/>
<path d="M38.4572 69.9766H35.5262V54H38.3928V60.0302H38.5371C39.1119 58.672 40.3262 57.8368 42.2364 57.8368C44.8194 57.8368 46.5181 59.4528 46.5181 62.3452V69.9766H43.5872V62.7839C43.5872 61.1679 42.6797 60.2236 41.1433 60.2236C39.5734 60.2236 38.4547 61.2224 38.4547 62.9549V69.9766H38.4572Z" fill="#F26727"/>
<path d="M48.0028 66.6152C48.0028 63.9161 50.3099 63.2221 52.7229 62.9718C54.9166 62.7462 55.7982 62.7066 55.7982 61.8961V61.849C55.7982 60.6717 55.0532 60 53.6947 60C52.2614 60 51.4365 60.7014 51.1452 61.5218L48.4101 61.1476C49.0571 58.964 51.0652 57.8387 53.6792 57.8387C56.0508 57.8387 58.7318 58.7905 58.7318 61.9581V69.9786H55.9142V68.3328H55.8163C55.2827 69.3391 54.1174 70.2214 52.166 70.2214C49.7918 70.219 48.0028 68.9698 48.0028 66.6152ZM55.806 65.6783V64.2655C55.4244 64.563 53.888 64.7488 53.1198 64.8505C51.8077 65.0289 50.8281 65.4825 50.8281 66.5681C50.8281 67.6066 51.702 68.1444 52.9239 68.1444C54.6898 68.1444 55.806 67.0117 55.806 65.6783Z" fill="#F26727"/>
<path d="M63.6119 57.993V59.9906H63.7408C64.1945 58.6027 65.3855 57.8219 66.8084 57.8219C67.1332 57.8219 67.5947 57.8542 67.8602 57.8988V60.4987C67.6102 60.4219 66.994 60.3352 66.499 60.3352C64.888 60.3352 63.697 61.4108 63.697 62.9326V69.979H60.7659V57.993H63.6119Z" fill="#F26727"/>
<path d="M68.0824 66.6152C68.0824 63.9161 70.3895 63.2221 72.8025 62.9718C74.9962 62.7462 75.8778 62.7066 75.8778 61.8961V61.849C75.8778 60.6717 75.1328 60 73.7743 60C72.341 60 71.5161 60.7014 71.2248 61.5218L68.4897 61.1476C69.1367 58.964 71.1448 57.8387 73.7588 57.8387C76.1304 57.8387 78.8115 58.7905 78.8115 61.9581V69.9786H75.9912V68.3328H75.8933C75.3597 69.3391 74.1945 70.2214 72.243 70.2214C69.8714 70.219 68.0824 68.9698 68.0824 66.6152ZM75.8856 65.6783V64.2655C75.504 64.563 73.9676 64.7488 73.1995 64.8505C71.8873 65.0289 70.9077 65.4825 70.9077 66.5681C70.9077 67.6066 71.7817 68.1444 73.0035 68.1444C74.7694 68.1444 75.8856 67.0117 75.8856 65.6783Z" fill="#F26727"/>
<path d="M84.6085 60.1785V66.3723C84.6085 67.5125 85.1988 67.7603 85.9361 67.7603C86.2995 67.7603 86.6321 67.6909 86.7945 67.6512L87.2895 69.8597C86.975 69.9612 86.4001 70.1174 85.5649 70.1397C83.3634 70.2016 81.662 69.0938 81.68 66.8383V60.1785H79.9142V57.9949H81.68V55.1223H84.6111V57.9925H87.0626V60.1785H84.6085Z" fill="#F26727"/>
<path d="M32.6182 77.3453C32.2857 75.5236 30.7827 74.4777 28.8649 74.4777C26.2818 74.4777 24.4619 76.3887 24.4619 79.8214C24.4619 83.3136 26.2973 85.1651 28.8571 85.1651C30.7467 85.1651 32.2573 84.1613 32.6182 82.3793L35.5028 82.3941C35.062 85.2989 32.5744 87.6411 28.8185 87.6411C24.6552 87.6411 21.5876 84.7363 21.5876 79.8238C21.5876 74.904 24.6939 72.0066 28.8185 72.0066C32.3191 72.0066 35.0182 73.9696 35.5028 77.3503H32.6182V77.3453Z" fill="#F26727"/>
<path d="M36.6299 81.7671C36.6299 78.2302 38.834 75.8657 42.3038 75.8657C45.7735 75.8657 47.9776 78.2302 47.9776 81.7671C47.9776 85.2965 45.7735 87.6536 42.3038 87.6536C38.834 87.6536 36.6299 85.2965 36.6299 81.7671ZM45.1471 81.7596C45.1471 79.6702 44.2063 77.9997 42.3167 77.9997C40.3962 77.9997 39.4552 79.6727 39.4552 81.7596C39.4552 83.8466 40.3962 85.4972 42.3167 85.4972C44.2063 85.4972 45.1471 83.8466 45.1471 81.7596Z" fill="#F26727"/>
<path d="M52.2579 87.428H49.4661V76.0143H52.1342V77.9551H52.2734C52.8122 76.6836 54.0315 75.8657 55.8051 75.8657C58.2488 75.8657 59.8678 77.4271 59.86 80.1609V87.428H57.0683V80.5774C57.0683 79.0531 56.2046 78.1409 54.7636 78.1409C53.2917 78.1409 52.2579 79.0927 52.2579 80.741V87.428Z" fill="#F26727"/>
<path d="M64.6254 87.428H61.8336V76.0143H64.5017V77.9551H64.6409C65.1797 76.6836 66.399 75.8657 68.1725 75.8657C70.6163 75.8657 72.2353 77.4271 72.2275 80.1609V87.428H69.4356V80.5774C69.4356 79.0531 68.5721 78.1409 67.1311 78.1409C65.659 78.1409 64.6254 79.0927 64.6254 80.741V87.428Z" fill="#F26727"/>
<path d="M73.6939 81.7893C73.6939 78.2674 75.9057 75.8657 79.2981 75.8657C82.2137 75.8657 84.7117 77.6279 84.7117 81.6332V82.4586H76.4625C76.4856 84.4141 77.6819 85.5567 79.4838 85.5567C80.6876 85.5567 81.6104 85.051 81.9895 84.0844L84.5956 84.367C84.1033 86.3524 82.206 87.6511 79.4451 87.6511C75.8773 87.6511 73.6939 85.3709 73.6939 81.7893ZM82.0358 80.6442C82.0203 79.0902 80.9402 77.9626 79.3369 77.9626C77.6714 77.9626 76.5527 79.1894 76.4703 80.6442H82.0358Z" fill="#F26727"/>
<path d="M85.6943 81.7671C85.6943 78.2823 87.8829 75.8657 91.3526 75.8657C94.2424 75.8657 96.248 77.4941 96.4413 79.9676H93.7732C93.5567 78.8672 92.7318 78.0343 91.3914 78.0343C89.6718 78.0343 88.5222 79.4174 88.5222 81.72C88.5222 84.0547 89.6487 85.4575 91.3914 85.4575C92.6159 85.4575 93.5335 84.7513 93.7732 83.5243H96.4413C96.2403 85.9459 94.3455 87.6486 91.3681 87.6486C87.8288 87.6511 85.6943 85.2221 85.6943 81.7671Z" fill="#F26727"/>
<path d="M103.783 78.0946H101.448V83.996C101.448 85.0816 102.01 85.3196 102.714 85.3196C103.062 85.3196 103.376 85.2527 103.531 85.2155L104 87.3198C103.698 87.4164 103.152 87.5651 102.358 87.5874C100.262 87.6469 98.6407 86.591 98.6562 84.4446V78.0971H96.9754V76.0151H98.6562V73.2814H101.448V76.0151H103.783V78.0946Z" fill="#F26727"/>
<path d="M223.016 87.9993H210.88L203.512 75.0804H215.646L223.016 87.9993Z" fill="#97134D"/>
<path d="M203.469 54L209.555 64.5216L196.113 88H184L203.469 54Z" fill="#97134D"/>
<path d="M248.023 74.5381L244.368 67.4973L240.533 74.5381H248.023ZM249.532 77.4798H238.986L236.244 82.4872H232.225L244.44 60.479L256.21 82.4872H252.138L249.532 77.4798Z" fill="#97134D"/>
<path d="M264.457 71.6801L257.658 61.8124H261.896L266.615 68.7964L271.55 61.8124H275.822L268.725 71.6801L276.185 82.4872H272.012L266.558 74.5639L260.919 82.4872H256.709L264.457 71.6801Z" fill="#97134D"/>
<path d="M283.241 82.4883H279.525V61.8124H283.239L283.241 82.4883Z" fill="#97134D"/>
<path d="M301.822 64.8546L298.788 66.3674C298.222 65.546 297.692 65.0103 297.172 64.758C296.641 64.4703 295.959 64.3296 295.114 64.3296C294.088 64.3296 293.236 64.5765 292.54 65.0769C291.862 65.5535 291.521 66.1558 291.522 66.8848C291.522 67.908 292.42 68.7154 294.202 69.3263L296.664 70.1798C298.665 70.839 300.127 71.684 301.064 72.6534C302.004 73.639 302.45 74.834 302.45 76.2694C302.45 78.1644 301.699 79.749 300.177 80.9708C298.664 82.2345 296.759 82.8583 294.503 82.8583C292.362 82.8583 290.59 82.33 289.204 81.2532C287.818 80.1742 286.973 78.684 286.624 76.7654L290.392 76.0654C290.572 77.2883 290.857 78.1107 291.296 78.5809C292.055 79.4677 293.189 79.9219 294.651 79.9219C295.82 79.9219 296.775 79.6062 297.539 78.9384C298.312 78.2932 298.689 77.4611 298.689 76.4648C298.689 76.0654 298.631 75.6918 298.471 75.3697C298.364 75.0197 298.153 74.7223 297.874 74.4389C297.603 74.1726 297.219 73.886 296.775 73.6465C296.331 73.3942 295.799 73.1806 295.182 72.9347L292.804 72.107C289.41 70.9152 287.74 69.1674 287.74 66.8591C287.74 65.3023 288.451 64.0204 289.861 62.9779C291.268 61.9172 293.032 61.3771 295.141 61.3793C297.98 61.3793 300.222 62.5388 301.822 64.8546Z" fill="#97134D"/>
<path d="M320.76 79.5444H323.063C324.76 79.5444 325.997 79.2728 326.786 78.7284C327.61 78.1218 328.035 77.3649 328.035 76.4556C328.035 75.5559 327.61 74.8033 326.821 74.1795C326.04 73.6148 324.658 73.2948 322.644 73.2948H320.76V79.5444ZM320.76 70.687H321.939C323.318 70.687 324.342 70.4347 324.98 69.9193C325.616 69.4029 325.947 68.6492 325.947 67.6615C325.947 66.6738 325.616 65.9308 324.961 65.4477C324.29 64.927 323.339 64.6736 322.077 64.6736H320.76V70.687ZM317.041 82.4883V61.8124H320.76C322.41 61.8124 323.723 61.9047 324.704 62.1248C325.692 62.332 326.525 62.711 327.202 63.1974C327.902 63.746 328.436 64.3955 328.849 65.1986C329.276 65.9705 329.483 66.7843 329.483 67.5949C329.483 69.0755 328.797 70.3273 327.444 71.3569C328.766 71.7295 329.786 72.3865 330.544 73.3259C331.32 74.2503 331.698 75.3197 331.698 76.5769C331.698 78.1787 331.021 79.5444 329.651 80.6685C328.836 81.3578 327.916 81.842 326.894 82.0975C325.771 82.3627 324.374 82.4883 322.684 82.4883H317.041Z" fill="#97134D"/>
<path d="M347.703 74.5381L344.034 67.4973L340.183 74.5381H347.703ZM349.216 77.4799H338.655L335.91 82.4872H331.889L344.085 60.479L355.876 82.4872H351.784L349.216 77.4799Z" fill="#97134D"/>
<path d="M358.315 82.4885V60.375L376.295 76.1842V61.8126H380.02V83.75L362.035 67.9945V82.4885H358.315Z" fill="#97134D"/>
<path d="M388.358 70.0665L397.967 61.8124H402.923L391.78 71.1798L403 82.4872H398.012L389.134 73.2852L388.358 73.9315V82.4872H384.628V61.8124H388.358V70.0665Z" fill="#97134D"/>
<path d="M502.124 60.9481H497.699C496.359 60.9481 495.303 59.9233 495.303 58.6224V54.3257C495.303 53.0643 496.359 52 497.699 52H502.124C503.424 52 504.52 53.0249 504.52 54.3257V58.6224C504.52 59.9233 503.464 60.9481 502.124 60.9481Z" fill="#406EB3"/>
<path d="M490.634 70.6058H485.68C484.178 70.6058 483 69.4232 483 68.0042V63.1556C483 61.7365 484.218 60.5539 485.68 60.5539H490.674C492.177 60.5539 493.354 61.7365 493.354 63.1556V68.0042C493.354 69.4627 492.136 70.6058 490.634 70.6058Z" fill="#632678"/>
<path d="M490.187 80.6577H487.142C486.248 80.6577 485.518 79.9482 485.518 79.0809V76.1245C485.518 75.2573 486.248 74.5477 487.142 74.5477H490.187C491.08 74.5477 491.811 75.2573 491.811 76.1245V79.0809C491.811 79.9482 491.08 80.6577 490.187 80.6577Z" fill="#982881"/>
<path d="M498.348 90H494.734C493.679 90 492.785 89.1722 492.785 88.1079V84.5996C492.785 83.5747 493.638 82.7075 494.734 82.7075H498.348C499.404 82.7075 500.297 83.5353 500.297 84.5996V88.1079C500.297 89.1722 499.444 90 498.348 90Z" fill="#BA2F7D"/>
<path d="M511.545 62.722H509.068C508.337 62.722 507.728 62.1307 507.728 61.4212V59.0166C507.728 58.3071 508.337 57.7158 509.068 57.7158H511.545C512.276 57.7158 512.885 58.3071 512.885 59.0166V61.4212C512.925 62.1307 512.316 62.722 511.545 62.722Z" fill="#BA2F7D"/>
<path d="M566.197 64.3382C567.01 64.3382 567.619 63.7075 567.619 62.9585C567.619 62.1702 566.969 61.5789 566.197 61.5789C565.385 61.5789 564.736 62.2096 564.736 62.9585C564.736 63.7075 565.385 64.3382 566.197 64.3382Z" fill="#26478D"/>
<path d="M513.697 79.2386C513.494 79.5539 513.128 79.7116 512.722 79.7116C512.519 79.7116 512.235 79.6721 512.072 79.5539C511.748 79.3568 511.545 78.9627 511.545 78.5685C511.545 78.3714 511.585 78.1743 511.707 78.0166L515.036 72.9315L511.707 67.8465C511.585 67.6888 511.545 67.4523 511.545 67.2946C511.545 66.9004 511.748 66.5062 512.113 66.3091C512.316 66.1908 512.519 66.1514 512.722 66.1514C513.128 66.1514 513.494 66.3091 513.737 66.6245L516.458 70.8029L519.219 66.6245C519.422 66.3091 519.828 66.1514 520.234 66.1514C520.437 66.1514 520.64 66.1909 520.843 66.3091C521.208 66.5062 521.411 66.9004 521.411 67.2946C521.411 67.4917 521.371 67.6888 521.249 67.8465L517.919 72.9315L521.249 78.0166C521.371 78.1743 521.411 78.3714 521.411 78.5685C521.411 78.9627 521.208 79.3963 520.883 79.5539C520.68 79.6722 520.437 79.7116 520.234 79.7116C519.828 79.7116 519.503 79.5539 519.259 79.2386L516.498 75.0996L513.697 79.2386Z" fill="#26478D"/>
<path d="M525.593 67.6888C526.852 66.5851 528.558 65.915 530.385 65.915C534.404 65.915 537.572 69.0291 537.572 72.8922C537.572 76.7158 534.364 79.8299 530.385 79.8299C528.558 79.8299 526.852 79.1598 525.593 78.0561V84.0084C525.593 84.5996 525.025 85.1121 524.416 85.1121C523.847 85.1121 523.238 84.5996 523.238 84.0084V67.137C523.238 66.5457 523.807 66.0332 524.416 66.0332C525.066 66.0332 525.593 66.5457 525.593 67.137V67.6888ZM530.344 68.2407C527.664 68.2407 525.553 70.2905 525.553 72.8922C525.553 75.4938 527.664 77.5436 530.344 77.5436C533.024 77.5436 535.135 75.4938 535.135 72.8922C535.176 70.2905 533.065 68.2407 530.344 68.2407Z" fill="#26478D"/>
<path d="M557.914 71.6307V78.6079C557.914 79.1992 557.346 79.7116 556.737 79.7116C556.087 79.7116 555.559 79.1992 555.559 78.6079V67.1369C555.559 66.5456 556.128 66.0332 556.737 66.0332C557.305 66.0332 557.874 66.5062 557.914 67.0975C558.889 66.3879 560.148 65.9543 561.488 65.9543C562.218 65.9543 562.787 66.5062 562.787 67.0975C562.787 67.7282 562.218 68.2801 561.488 68.2801C559.66 68.3195 557.914 68.9502 557.914 71.6307Z" fill="#26478D"/>
<path d="M566.198 66.0333C565.548 66.0333 565.02 66.5457 565.02 67.137V78.6474C565.02 79.2387 565.588 79.7511 566.198 79.7511C566.766 79.7511 567.375 79.2387 567.375 78.6474V67.137C567.375 66.5457 566.807 66.0333 566.198 66.0333Z" fill="#26478D"/>
<path d="M581.302 67.1369C581.302 66.5456 581.871 66.0332 582.48 66.0332C583.048 66.0332 583.657 66.5456 583.657 67.1369V78.6473C583.657 79.2386 583.089 79.751 582.48 79.751C581.83 79.751 581.302 79.2386 581.302 78.6473V78.0954C580.003 79.1992 578.338 79.8693 576.511 79.8693C572.491 79.8693 569.324 76.7552 569.324 72.8921C569.324 69.0684 572.532 65.9543 576.511 65.9543C578.338 65.9543 580.003 66.6245 581.302 67.7282V67.1369ZM576.511 77.5436C579.191 77.5436 581.302 75.4938 581.302 72.8921C581.302 70.2904 579.191 68.2406 576.511 68.2406C573.831 68.2406 571.72 70.2904 571.72 72.8921C571.72 75.4938 573.831 77.5436 576.511 77.5436Z" fill="#26478D"/>
<path d="M595.716 71.7884C595.716 69.8568 594.011 68.2012 592.022 68.2012C590.113 68.2012 588.327 68.9502 588.327 71.6701V78.6473C588.327 79.2386 587.758 79.751 587.149 79.751C586.499 79.751 585.972 79.2386 585.972 78.6473V67.1369C585.972 66.5456 586.54 66.0332 587.149 66.0332C587.717 66.0332 588.286 66.5062 588.327 67.0975C589.342 66.3485 590.6 65.9543 591.981 65.9543C595.189 65.9543 598.072 68.3983 598.072 71.473V78.6473C598.072 79.2386 597.503 79.751 596.894 79.751C596.244 79.751 595.716 79.2386 595.716 78.6473V71.7884Z" fill="#26478D"/>
<path d="M510.854 72.4979C510.814 68.9502 507.565 65.9543 503.708 65.9543C499.688 65.9543 496.521 69.0684 496.521 72.8921C496.521 76.7946 499.729 79.8693 503.708 79.8693C505.616 79.8693 507.403 79.1598 508.702 77.8983C508.946 77.7013 509.108 77.3465 509.108 77.0311C509.108 76.4004 508.54 75.888 507.931 75.888C507.565 75.888 507.24 76.0851 506.997 76.361C506.185 77.1888 505.007 77.583 503.749 77.583C501.353 77.583 499.404 76.0062 498.998 73.7987H509.717C509.717 73.7987 509.717 73.7987 509.758 73.7987H509.839C509.88 73.7987 509.92 73.7987 509.961 73.7592C510.448 73.5621 510.854 73.0892 510.854 72.4979ZM503.708 68.2406C505.86 68.2406 507.647 69.5809 508.256 71.473H499.12C499.729 69.5809 501.515 68.2406 503.708 68.2406Z" fill="#26478D"/>
<path d="M553.57 72.4979C553.529 68.9502 550.24 65.9543 546.423 65.9543C542.404 65.9543 539.237 69.0684 539.237 72.8921C539.237 76.7946 542.444 79.8693 546.423 79.8693C548.332 79.8693 550.118 79.1598 551.418 77.8983C551.661 77.7013 551.824 77.3465 551.824 77.0311C551.824 76.4004 551.255 75.888 550.646 75.888C550.281 75.888 549.956 76.0851 549.712 76.361C548.9 77.1888 547.723 77.583 546.464 77.583C544.068 77.583 542.119 76.0062 541.713 73.7987H552.433C552.433 73.7987 552.433 73.7987 552.473 73.7987H552.514C552.555 73.7987 552.595 73.7987 552.595 73.7987H552.636C553.123 73.6016 553.57 73.0892 553.57 72.4979ZM546.423 68.2406C548.575 68.2406 550.362 69.5809 550.971 71.473H541.835C542.444 69.5809 544.231 68.2406 546.423 68.2406Z" fill="#26478D"/>
<path d="M600.589 79.7511C600.467 79.7511 600.386 79.6723 600.386 79.554V77.6225H599.939C599.818 77.6225 599.736 77.5436 599.736 77.4254C599.736 77.3071 599.818 77.2283 599.939 77.2283H601.239C601.361 77.2283 601.442 77.3071 601.442 77.4254C601.442 77.5436 601.361 77.6225 601.239 77.6225H600.792V79.554C600.792 79.6723 600.711 79.7511 600.589 79.7511Z" fill="#26478D"/>
<path d="M602.904 79.7511C602.782 79.7511 602.741 79.6723 602.701 79.5934L602.132 78.0166V79.554C602.132 79.6723 602.051 79.7511 601.929 79.7511C601.807 79.7511 601.726 79.6723 601.726 79.554V77.5042C601.726 77.3465 601.848 77.2283 602.01 77.2283C602.132 77.2283 602.254 77.3071 602.295 77.4254L602.863 79.0415L603.432 77.4254C603.472 77.3071 603.594 77.2283 603.716 77.2283C603.878 77.2283 604 77.3465 604 77.5042V79.554C604 79.6723 603.919 79.7511 603.797 79.7511C603.675 79.7511 603.594 79.6723 603.594 79.554V78.0166C603.513 78.2532 603.391 78.6473 603.269 78.9627C603.066 79.5934 603.026 79.5934 603.026 79.5934C603.066 79.7117 602.985 79.7511 602.904 79.7511Z" fill="#26478D"/>
</svg>
